<svg width="400" height="496" viewBox="0 0 400 496" fill="none" xmlns="http://www.w3.org/2000/svg">
<path fill-rule="evenodd" clip-rule="evenodd" d="M165.03 1.57517C214.557 18.5255 187.736 105.032 219.166 146.894C233.103 165.456 263.992 155.609 286.067 162.785C325.147 175.49 399.388 164.59 399.996 205.679C400.688 252.49 317.955 251.452 287.909 287.355C274.154 303.792 280.715 328.857 279.033 350.223C275.523 394.811 302.986 449.795 272.541 482.558C247.737 509.251 197.993 488.438 165.03 472.909C134.635 458.59 126.53 416.524 97.2795 399.994C70.7187 384.984 27.6715 407.865 8.27038 384.32C-10.9961 360.939 9.28212 324.87 10.4308 294.595C11.3241 271.052 7.89817 247.578 14.3188 224.91C20.5807 202.802 35.0401 184.816 47.0703 165.239C60.4553 143.458 74.5794 123.265 89.5272 102.526C114.409 68.0038 124.768 -12.204 165.03 1.57517Z" fill="#5F5F5F"/>
</svg>
